<?xml version="1.0" encoding="UTF-8" standalone="no"?><!DOCTYPE svg PUBLIC "-//W3C//DTD SVG 1.1//EN" "http://www.w3.org/Graphics/SVG/1.1/DTD/svg11.dtd"><svg width="100%" height="100%" viewBox="0 0 250 250" version="1.1" xmlns="http://www.w3.org/2000/svg" xmlns:xlink="http://www.w3.org/1999/xlink" xml:space="preserve" xmlns:serif="http://www.serif.com/" style="fill-rule:evenodd;clip-rule:evenodd;stroke-linejoin:round;stroke-miterlimit:1.41421;"><path d="M32.466,24.91c-3.232,30.271 -8.664,101.693 5.748,145.482c3.597,10.955 8.239,19.546 13.792,25.534c6.477,6.983 13.951,13.652 22.226,19.817c23.83,17.771 47.332,26.16 50.759,27.33c4.509,-1.542 43.723,-15.598 72.985,-47.147c22.469,-24.239 24.753,-83.63 22.712,-129.187c-0.754,-16.94 -2.115,-31.865 -3.172,-41.829c-3.329,0.571 -11.897,1.816 -23.368,1.816c-4.302,0 -8.616,-0.181 -12.808,-0.537c-21.983,-1.864 -40.928,-8.343 -56.349,-19.262c-23.101,16.352 -50.297,19.81 -69.133,19.81c-11.495,0.002 -20.062,-1.253 -23.392,-1.827Z" style="fill:#414042;fill-rule:nonzero;"/></svg>